{
  "accessors": [
    {
      "bufferView": 1,
      "componentType": 5123,
      "type": "SCALAR",
      "count": 3636
    },
    {
      "bufferView": 2,
      "componentType": 5126,
      "type": "VEC3",
      "count": 2424,
      "min": [0, 0, 0],
      "max": [2, 16, 16]
    },
    {
      "bufferView": 2,
      "componentType": 5126,
      "type": "VEC3",
      "byteOffset": 12,
      "count": 2424
    },
    {
      "bufferView": 2,
      "componentType": 5126,
      "type": "VEC2",
      "byteOffset": 24,
      "count": 2424
    },
    {
      "bufferView": 3,
      "componentType": 5123,
      "type": "SCALAR",
      "count": 2796
    },
    {
      "bufferView": 4,
      "componentType": 5126,
      "type": "VEC3",
      "count": 1864,
      "min": [0, 0, 0],
      "max": [2, 12, 16]
    },
    {
      "bufferView": 4,
      "componentType": 5126,
      "type": "VEC3",
      "byteOffset": 12,
      "count": 1864
    },
    {
      "bufferView": 4,
      "componentType": 5126,
      "type": "VEC2",
      "byteOffset": 24,
      "count": 1864
    },
    {
      "bufferView": 5,
      "componentType": 5123,
      "type": "SCALAR",
      "count": 1116
    },
    {
      "bufferView": 6,
      "componentType": 5126,
      "type": "VEC3",
      "count": 744,
      "min": [0, 0, 0],
      "max": [2, 16, 4]
    },
    {
      "bufferView": 6,
      "componentType": 5126,
      "type": "VEC3",
      "byteOffset": 12,
      "count": 744
    },
    {
      "bufferView": 6,
      "componentType": 5126,
      "type": "VEC2",
      "byteOffset": 24,
      "count": 744
    },
    {
      "bufferView": 7,
      "componentType": 5123,
      "type": "SCALAR",
      "count": 852
    },
    {
      "bufferView": 8,
      "componentType": 5126,
      "type": "VEC3",
      "count": 568,
      "min": [0, 0, 0],
      "max": [2, 12, 4]
    },
    {
      "bufferView": 8,
      "componentType": 5126,
      "type": "VEC3",
      "byteOffset": 12,
      "count": 568
    },
    {
      "bufferView": 8,
      "componentType": 5126,
      "type": "VEC2",
      "byteOffset": 24,
      "count": 568
    }
  ],
  "asset": {
    "generator": "goxel",
    "version": "2.0"
  },
  "bufferViews": [
    {
      "buffer": 0,
      "byteLength": 123
    },
    {
      "buffer": 2,
      "byteLength": 7272
    },
    {
      "buffer": 1,
      "byteLength": 77568,
      "byteStride": 32
    },
    {
      "buffer": 4,
      "byteLength": 5592
    },
    {
      "buffer": 3,
      "byteLength": 59648,
      "byteStride": 32
    },
    {
      "buffer": 6,
      "byteLength": 2232
    },
    {
      "buffer": 5,
      "byteLength": 23808,
      "byteStride": 32
    },
    {
      "buffer": 8,
      "byteLength": 1704
    },
    {
      "buffer": 7,
      "byteLength": 18176,
      "byteStride": 32
    }
  ],
  "buffers": [
    {
      "uri": "data:application/octet-stream;base64,",
      "byteLength": 123
    },
    {
      "uri": "data:application/octet-stream;base64,",
      "byteLength": 77568
    },
    {
      "uri": "data:application/octet-stream;base64,",
      "byteLength": 7272
    },
    {
      "uri": "data:application/octet-stream;base64,",
      "byteLength": 59648
    },
    {
      "uri": "data:application/octet-stream;base64,",
      "byteLength": 5592
    },
    {
      "uri": "data:application/octet-stream;base64,",
      "byteLength": 23808
    },
    {
      "uri": "data:application/octet-stream;base64,",
      "byteLength": 2232
    },
    {
      "uri": "data:application/octet-stream;base64,",
      "byteLength": 18176
    },
    {
      "uri": "data:application/octet-stream;base64,",
      "byteLength": 1704
    }
  ],
  "images": [
    {
      "bufferView": 0,
      "mimeType": "image/png"
    }
  ],
  "meshes": [
    {
      "primitives": [
        {
          "indices": 0,
          "material": 0,
          "attributes": {
            "POSITION": 1,
            "NORMAL": 2,
            "TEXCOORD_0": 3
          }
        }
      ]
    },
    {
      "primitives": [
        {
          "indices": 4,
          "material": 0,
          "attributes": {
            "POSITION": 5,
            "NORMAL": 6,
            "TEXCOORD_0": 7
          }
        }
      ]
    },
    {
      "primitives": [
        {
          "indices": 8,
          "material": 0,
          "attributes": {
            "POSITION": 9,
            "NORMAL": 10,
            "TEXCOORD_0": 11
          }
        }
      ]
    },
    {
      "primitives": [
        {
          "indices": 12,
          "material": 0,
          "attributes": {
            "POSITION": 13,
            "NORMAL": 14,
            "TEXCOORD_0": 15
          }
        }
      ]
    }
  ],
  "materials": [
    {
      "name": "Material.1",
      "pbrMetallicRoughness": {
        "baseColorTexture": {
          "index": 0
        },
        "metallicFactor": 0.200000003,
        "roughnessFactor": 0.5
      }
    }
  ],
  "nodes": [
    {
      "children": [ 5 ],
      "matrix": [1, 0, 0, 0, 0, 0, -1, 0, 0, 1, 0, 0, 0, 0, 0, 1]
    },
    {
      "mesh": 0,
      "translation": [0, 0, 0]
    },
    {
      "mesh": 1,
      "translation": [0, 16, 0]
    },
    {
      "mesh": 2,
      "translation": [0, 0, 16]
    },
    {
      "mesh": 3,
      "translation": [0, 16, 16]
    },
    {
      "children": [ 1, 2, 3, 4 ]
    }
  ],
  "scenes": [
    {
      "nodes": [ 0 ]
    }
  ],
  "textures": [
    {
      "source": 0
    }
  ]
}
