ply
format ascii 1.0
comment Generated from Goxel 0.10.8
element vertex 816
property float x
property float y
property float z
property float red
property float green
property float blue
element face 600
property list uchar int vertex_indices
end_header
-11 -10 0 0.643137 0.533333 0.313725
-10 -10 0 0.643137 0.533333 0.313725
-10 -10 1 0.643137 0.533333 0.313725
-11 -10 1 0.643137 0.533333 0.313725
-11 -9 0 0.643137 0.533333 0.313725
-10 -9 0 0.643137 0.533333 0.313725
-11 -9 1 0.643137 0.533333 0.313725
-9 -10 0 0.643137 0.533333 0.313725
-9 -10 1 0.643137 0.533333 0.313725
-9 -9 0 0.643137 0.533333 0.313725
-8 -10 0 0.643137 0.533333 0.313725
-8 -10 1 0.643137 0.533333 0.313725
-8 -9 0 0.643137 0.533333 0.313725
-7 -10 0 0.643137 0.533333 0.313725
-7 -10 1 0.643137 0.533333 0.313725
-7 -9 0 0.643137 0.533333 0.313725
-6 -10 0 0.643137 0.533333 0.313725
-6 -10 1 0.643137 0.533333 0.313725
-6 -9 0 0.643137 0.533333 0.313725
-5 -10 0 0.643137 0.533333 0.313725
-5 -10 1 0.643137 0.533333 0.313725
-5 -9 0 0.643137 0.533333 0.313725
-4 -10 0 0.643137 0.533333 0.313725
-4 -10 1 0.643137 0.533333 0.313725
-4 -9 0 0.643137 0.533333 0.313725
-3 -10 0 0.643137 0.533333 0.313725
-3 -10 1 0.643137 0.533333 0.313725
-3 -9 0 0.643137 0.533333 0.313725
-2 -10 0 0.643137 0.533333 0.313725
-2 -10 1 0.643137 0.533333 0.313725
-2 -9 0 0.643137 0.533333 0.313725
-1 -10 0 0.643137 0.533333 0.313725
-1 -10 1 0.643137 0.533333 0.313725
-1 -9 0 0.643137 0.533333 0.313725
-1 -9 1 0.643137 0.533333 0.313725
-11 -8 0 0.643137 0.533333 0.313725
-10 -8 0 0.643137 0.533333 0.313725
-11 -8 1 0.643137 0.533333 0.313725
-9 -8 0 0.643137 0.533333 0.313725
-8 -8 0 0.643137 0.533333 0.313725
-7 -8 0 0.643137 0.533333 0.313725
-6 -8 0 0.643137 0.533333 0.313725
-5 -8 0 0.643137 0.533333 0.313725
-4 -8 0 0.643137 0.533333 0.313725
-3 -8 0 0.643137 0.533333 0.313725
-2 -8 0 0.643137 0.533333 0.313725
-1 -8 0 0.643137 0.533333 0.313725
-1 -8 1 0.643137 0.533333 0.313725
-11 -7 0 0.643137 0.533333 0.313725
-10 -7 0 0.643137 0.533333 0.313725
-11 -7 1 0.643137 0.533333 0.313725
-9 -7 0 0.643137 0.533333 0.313725
-8 -7 0 0.643137 0.533333 0.313725
-7 -7 0 0.643137 0.533333 0.313725
-6 -7 0 0.643137 0.533333 0.313725
-5 -7 0 0.643137 0.533333 0.313725
-4 -7 0 0.643137 0.533333 0.313725
-3 -7 0 0.643137 0.533333 0.313725
-2 -7 0 0.643137 0.533333 0.313725
-1 -7 0 0.643137 0.533333 0.313725
-1 -7 1 0.643137 0.533333 0.313725
-11 -6 0 0.643137 0.533333 0.313725
-10 -6 0 0.643137 0.533333 0.313725
-11 -6 1 0.643137 0.533333 0.313725
-9 -6 0 0.643137 0.533333 0.313725
-8 -6 0 0.643137 0.533333 0.313725
-7 -6 0 0.643137 0.533333 0.313725
-6 -6 0 0.643137 0.533333 0.313725
-5 -6 0 0.643137 0.533333 0.313725
-4 -6 0 0.643137 0.533333 0.313725
-3 -6 0 0.643137 0.533333 0.313725
-2 -6 0 0.643137 0.533333 0.313725
-1 -6 0 0.643137 0.533333 0.313725
-1 -6 1 0.643137 0.533333 0.313725
-11 -5 0 0.643137 0.533333 0.313725
-10 -5 0 0.643137 0.533333 0.313725
-11 -5 1 0.643137 0.533333 0.313725
-9 -5 0 0.643137 0.533333 0.313725
-8 -5 0 0.643137 0.533333 0.313725
-7 -5 0 0.643137 0.533333 0.313725
-6 -5 0 0.643137 0.533333 0.313725
-5 -5 0 0.643137 0.533333 0.313725
-4 -5 0 0.643137 0.533333 0.313725
-3 -5 0 0.643137 0.533333 0.313725
-2 -5 0 0.643137 0.533333 0.313725
-1 -5 0 0.643137 0.533333 0.313725
-1 -5 1 0.643137 0.533333 0.313725
-11 -4 0 0.643137 0.533333 0.313725
-10 -4 0 0.643137 0.533333 0.313725
-11 -4 1 0.643137 0.533333 0.313725
-9 -4 0 0.643137 0.533333 0.313725
-8 -4 0 0.643137 0.533333 0.313725
-7 -4 0 0.643137 0.533333 0.313725
-6 -4 0 0.643137 0.533333 0.313725
-5 -4 0 0.643137 0.533333 0.313725
-4 -4 0 0.643137 0.533333 0.313725
-3 -4 0 0.643137 0.533333 0.313725
-2 -4 0 0.643137 0.533333 0.313725
-1 -4 0 0.643137 0.533333 0.313725
-1 -4 1 0.643137 0.533333 0.313725
-11 -3 0 0.643137 0.533333 0.313725
-10 -3 0 0.643137 0.533333 0.313725
-11 -3 1 0.643137 0.533333 0.313725
-9 -3 0 0.643137 0.533333 0.313725
-8 -3 0 0.643137 0.533333 0.313725
-7 -3 0 0.643137 0.533333 0.313725
-6 -3 0 0.643137 0.533333 0.313725
-5 -3 0 0.643137 0.533333 0.313725
-4 -3 0 0.643137 0.533333 0.313725
-3 -3 0 0.643137 0.533333 0.313725
-2 -3 0 0.643137 0.533333 0.313725
-1 -3 0 0.643137 0.533333 0.313725
-1 -3 1 0.643137 0.533333 0.313725
-11 -2 0 0.643137 0.533333 0.313725
-10 -2 0 0.643137 0.533333 0.313725
-11 -2 1 0.643137 0.533333 0.313725
-9 -2 0 0.643137 0.533333 0.313725
-8 -2 0 0.643137 0.533333 0.313725
-7 -2 0 0.643137 0.533333 0.313725
-6 -2 0 0.643137 0.533333 0.313725
-5 -2 0 0.643137 0.533333 0.313725
-4 -2 0 0.643137 0.533333 0.313725
-3 -2 0 0.643137 0.533333 0.313725
-2 -2 0 0.643137 0.533333 0.313725
-1 -2 0 0.643137 0.533333 0.313725
-1 -2 1 0.643137 0.533333 0.313725
-11 -1 0 0.643137 0.533333 0.313725
-10 -1 0 0.643137 0.533333 0.313725
-11 -1 1 0.643137 0.533333 0.313725
-9 -1 0 0.643137 0.533333 0.313725
-8 -1 0 0.643137 0.533333 0.313725
-7 -1 0 0.643137 0.533333 0.313725
-6 -1 0 0.643137 0.533333 0.313725
-5 -1 0 0.643137 0.533333 0.313725
-4 -1 0 0.643137 0.533333 0.313725
-3 -1 0 0.643137 0.533333 0.313725
-2 -1 0 0.643137 0.533333 0.313725
-1 -1 0 0.643137 0.533333 0.313725
-1 -1 1 0.643137 0.533333 0.313725
-10 0 0 0.643137 0.533333 0.313725
-11 0 0 0.643137 0.533333 0.313725
-11 0 1 0.643137 0.533333 0.313725
-10 0 1 0.643137 0.533333 0.313725
-9 0 0 0.643137 0.533333 0.313725
-9 0 1 0.643137 0.533333 0.313725
-8 0 0 0.643137 0.533333 0.313725
-8 0 1 0.643137 0.533333 0.313725
-7 0 0 0.643137 0.533333 0.313725
-7 0 1 0.643137 0.533333 0.313725
-6 0 0 0.643137 0.533333 0.313725
-6 0 1 0.643137 0.533333 0.313725
-5 0 0 0.643137 0.533333 0.313725
-5 0 1 0.643137 0.533333 0.313725
-4 0 0 0.643137 0.533333 0.313725
-4 0 1 0.643137 0.533333 0.313725
-3 0 0 0.643137 0.533333 0.313725
-3 0 1 0.643137 0.533333 0.313725
-2 0 0 0.643137 0.533333 0.313725
-2 0 1 0.643137 0.533333 0.313725
-1 0 0 0.643137 0.533333 0.313725
-1 0 1 0.643137 0.533333 0.313725
-10 -10 2 0.643137 0.533333 0.313725
-11 -10 2 0.643137 0.533333 0.313725
-11 -9 2 0.643137 0.533333 0.313725
-9 -10 2 0.643137 0.533333 0.313725
-8 -10 2 0.643137 0.533333 0.313725
-7 -10 2 0.643137 0.533333 0.313725
-6 -10 2 0.643137 0.533333 0.313725
-5 -10 2 0.643137 0.533333 0.313725
-4 -10 2 0.643137 0.533333 0.313725
-3 -10 2 0.643137 0.533333 0.313725
-2 -10 2 0.643137 0.533333 0.313725
-1 -10 2 0.643137 0.533333 0.313725
-1 -9 2 0.643137 0.533333 0.313725
-11 -9 1 0.792157 0.682353 0.462745
-11 -9 2 0.792157 0.682353 0.462745
-11 -8 2 0.792157 0.682353 0.462745
-11 -8 1 0.792157 0.682353 0.462745
-1 -8 2 0.643137 0.533333 0.313725
-11 -8 2 0.643137 0.533333 0.313725
-11 -7 2 0.643137 0.533333 0.313725
-1 -7 2 0.643137 0.533333 0.313725
-11 -6 2 0.643137 0.533333 0.313725
-1 -6 2 0.643137 0.533333 0.313725
-11 -5 2 0.643137 0.533333 0.313725
-1 -6 1 0.792157 0.682353 0.462745
-1 -5 1 0.792157 0.682353 0.462745
-1 -5 2 0.792157 0.682353 0.462745
-1 -6 2 0.792157 0.682353 0.462745
-11 -4 2 0.643137 0.533333 0.313725
-1 -4 2 0.643137 0.533333 0.313725
-1 -5 2 0.643137 0.533333 0.313725
-11 -3 2 0.643137 0.533333 0.313725
-1 -3 2 0.643137 0.533333 0.313725
-11 -2 2 0.643137 0.533333 0.313725
-1 -2 2 0.643137 0.533333 0.313725
-11 -2 1 0.792157 0.682353 0.462745
-11 -2 2 0.792157 0.682353 0.462745
-11 -1 2 0.792157 0.682353 0.462745
-11 -1 1 0.792157 0.682353 0.462745
-1 -1 2 0.643137 0.533333 0.313725
-11 0 2 0.643137 0.533333 0.313725
-10 0 2 0.643137 0.533333 0.313725
-11 -1 2 0.643137 0.533333 0.313725
-9 0 1 0.792157 0.682353 0.462745
-10 0 1 0.792157 0.682353 0.462745
-10 0 2 0.792157 0.682353 0.462745
-9 0 2 0.792157 0.682353 0.462745
-9 0 2 0.643137 0.533333 0.313725
-8 0 2 0.643137 0.533333 0.313725
-7 0 2 0.643137 0.533333 0.313725
-6 0 2 0.643137 0.533333 0.313725
-5 0 2 0.643137 0.533333 0.313725
-4 0 2 0.643137 0.533333 0.313725
-3 0 2 0.643137 0.533333 0.313725
-2 0 2 0.643137 0.533333 0.313725
-1 0 2 0.643137 0.533333 0.313725
-10 -10 3 0.643137 0.533333 0.313725
-11 -10 3 0.643137 0.533333 0.313725
-11 -9 3 0.643137 0.533333 0.313725
-9 -10 3 0.643137 0.533333 0.313725
-8 -10 3 0.643137 0.533333 0.313725
-7 -10 3 0.643137 0.533333 0.313725
-7 -10 2 0.792157 0.682353 0.462745
-6 -10 2 0.792157 0.682353 0.462745
-6 -10 3 0.792157 0.682353 0.462745
-7 -10 3 0.792157 0.682353 0.462745
-5 -10 3 0.643137 0.533333 0.313725
-6 -10 3 0.643137 0.533333 0.313725
-4 -10 3 0.643137 0.533333 0.313725
-3 -10 3 0.643137 0.533333 0.313725
-2 -10 3 0.643137 0.533333 0.313725
-1 -10 3 0.643137 0.533333 0.313725
-1 -9 3 0.643137 0.533333 0.313725
-11 -8 3 0.643137 0.533333 0.313725
-1 -8 3 0.643137 0.533333 0.313725
-11 -7 3 0.643137 0.533333 0.313725
-1 -7 3 0.643137 0.533333 0.313725
-11 -6 3 0.643137 0.533333 0.313725
-1 -6 3 0.643137 0.533333 0.313725
-11 -5 3 0.643137 0.533333 0.313725
-1 -5 3 0.792157 0.682353 0.462745
-1 -6 3 0.792157 0.682353 0.462745
-11 -4 3 0.643137 0.533333 0.313725
-1 -4 3 0.643137 0.533333 0.313725
-1 -5 3 0.643137 0.533333 0.313725
-11 -4 2 0.792157 0.682353 0.462745
-11 -4 3 0.792157 0.682353 0.462745
-11 -3 3 0.792157 0.682353 0.462745
-11 -3 2 0.792157 0.682353 0.462745
-1 -3 3 0.643137 0.533333 0.313725
-11 -3 3 0.643137 0.533333 0.313725
-11 -2 3 0.643137 0.533333 0.313725
-1 -2 3 0.643137 0.533333 0.313725
-11 -2 3 0.792157 0.682353 0.462745
-11 -1 3 0.792157 0.682353 0.462745
-1 -2 2 0.792157 0.682353 0.462745
-1 -1 2 0.792157 0.682353 0.462745
-1 -1 3 0.792157 0.682353 0.462745
-1 -2 3 0.792157 0.682353 0.462745
-11 0 3 0.643137 0.533333 0.313725
-10 0 3 0.643137 0.533333 0.313725
-11 -1 3 0.643137 0.533333 0.313725
-10 0 3 0.792157 0.682353 0.462745
-9 0 3 0.792157 0.682353 0.462745
-9 0 3 0.643137 0.533333 0.313725
-8 0 3 0.643137 0.533333 0.313725
-7 0 3 0.643137 0.533333 0.313725
-6 0 3 0.643137 0.533333 0.313725
-5 0 2 0.792157 0.682353 0.462745
-6 0 2 0.792157 0.682353 0.462745
-6 0 3 0.792157 0.682353 0.462745
-5 0 3 0.792157 0.682353 0.462745
-5 0 3 0.643137 0.533333 0.313725
-4 0 3 0.643137 0.533333 0.313725
-3 0 3 0.643137 0.533333 0.313725
-2 0 3 0.643137 0.533333 0.313725
-1 0 3 0.643137 0.533333 0.313725
-1 -1 3 0.643137 0.533333 0.313725
-10 -10 4 0.643137 0.533333 0.313725
-11 -10 4 0.643137 0.533333 0.313725
-11 -9 4 0.643137 0.533333 0.313725
-9 -10 4 0.643137 0.533333 0.313725
-8 -10 4 0.643137 0.533333 0.313725
-7 -10 4 0.643137 0.533333 0.313725
-6 -10 4 0.792157 0.682353 0.462745
-7 -10 4 0.792157 0.682353 0.462745
-5 -10 4 0.643137 0.533333 0.313725
-6 -10 4 0.643137 0.533333 0.313725
-5 -10 3 0.792157 0.682353 0.462745
-4 -10 3 0.792157 0.682353 0.462745
-4 -10 4 0.792157 0.682353 0.462745
-5 -10 4 0.792157 0.682353 0.462745
-3 -10 4 0.643137 0.533333 0.313725
-4 -10 4 0.643137 0.533333 0.313725
-2 -10 4 0.643137 0.533333 0.313725
-1 -10 4 0.643137 0.533333 0.313725
-1 -9 4 0.643137 0.533333 0.313725
-11 -8 4 0.643137 0.533333 0.313725
-1 -8 4 0.643137 0.533333 0.313725
-11 -7 4 0.643137 0.533333 0.313725
-1 -7 4 0.643137 0.533333 0.313725
-11 -7 3 0.792157 0.682353 0.462745
-11 -7 4 0.792157 0.682353 0.462745
-11 -6 4 0.792157 0.682353 0.462745
-11 -6 3 0.792157 0.682353 0.462745
-1 -6 4 0.643137 0.533333 0.313725
-11 -6 4 0.643137 0.533333 0.313725
-11 -5 4 0.643137 0.533333 0.313725
-1 -5 4 0.792157 0.682353 0.462745
-1 -6 4 0.792157 0.682353 0.462745
-11 -4 4 0.643137 0.533333 0.313725
-1 -4 4 0.643137 0.533333 0.313725
-1 -5 4 0.643137 0.533333 0.313725
-11 -4 4 0.792157 0.682353 0.462745
-11 -3 4 0.792157 0.682353 0.462745
-1 -4 3 0.792157 0.682353 0.462745
-1 -3 3 0.792157 0.682353 0.462745
-1 -3 4 0.792157 0.682353 0.462745
-1 -4 4 0.792157 0.682353 0.462745
-11 -3 4 0.643137 0.533333 0.313725
-11 -2 4 0.643137 0.533333 0.313725
-1 -2 4 0.643137 0.533333 0.313725
-1 -3 4 0.643137 0.533333 0.313725
-11 -2 4 0.792157 0.682353 0.462745
-11 -1 4 0.792157 0.682353 0.462745
-1 -1 4 0.792157 0.682353 0.462745
-1 -2 4 0.792157 0.682353 0.462745
-11 0 4 0.643137 0.533333 0.313725
-10 0 4 0.643137 0.533333 0.313725
-11 -1 4 0.643137 0.533333 0.313725
-10 0 4 0.792157 0.682353 0.462745
-9 0 4 0.792157 0.682353 0.462745
-9 0 4 0.643137 0.533333 0.313725
-8 0 4 0.643137 0.533333 0.313725
-7 0 3 0.792157 0.682353 0.462745
-8 0 3 0.792157 0.682353 0.462745
-8 0 4 0.792157 0.682353 0.462745
-7 0 4 0.792157 0.682353 0.462745
-7 0 4 0.643137 0.533333 0.313725
-6 0 4 0.643137 0.533333 0.313725
-6 0 4 0.792157 0.682353 0.462745
-5 0 4 0.792157 0.682353 0.462745
-5 0 4 0.643137 0.533333 0.313725
-4 0 4 0.643137 0.533333 0.313725
-3 0 3 0.792157 0.682353 0.462745
-4 0 3 0.792157 0.682353 0.462745
-4 0 4 0.792157 0.682353 0.462745
-3 0 4 0.792157 0.682353 0.462745
-3 0 4 0.643137 0.533333 0.313725
-2 0 4 0.643137 0.533333 0.313725
-1 0 4 0.643137 0.533333 0.313725
-1 -1 4 0.643137 0.533333 0.313725
-10 -10 5 0.643137 0.533333 0.313725
-11 -10 5 0.643137 0.533333 0.313725
-11 -9 5 0.643137 0.533333 0.313725
-9 -10 5 0.643137 0.533333 0.313725
-9 -10 4 0.792157 0.682353 0.462745
-8 -10 4 0.792157 0.682353 0.462745
-8 -10 5 0.792157 0.682353 0.462745
-9 -10 5 0.792157 0.682353 0.462745
-7 -10 5 0.643137 0.533333 0.313725
-8 -10 5 0.643137 0.533333 0.313725
-6 -10 5 0.643137 0.533333 0.313725
-5 -10 5 0.643137 0.533333 0.313725
-4 -10 5 0.792157 0.682353 0.462745
-5 -10 5 0.792157 0.682353 0.462745
-3 -10 5 0.643137 0.533333 0.313725
-4 -10 5 0.643137 0.533333 0.313725
-2 -10 5 0.643137 0.533333 0.313725
-1 -10 5 0.643137 0.533333 0.313725
-1 -9 5 0.643137 0.533333 0.313725
-11 -8 5 0.643137 0.533333 0.313725
-1 -8 5 0.643137 0.533333 0.313725
-11 -7 5 0.643137 0.533333 0.313725
-1 -8 4 0.792157 0.682353 0.462745
-1 -7 4 0.792157 0.682353 0.462745
-1 -7 5 0.792157 0.682353 0.462745
-1 -8 5 0.792157 0.682353 0.462745
-11 -7 5 0.792157 0.682353 0.462745
-11 -6 5 0.792157 0.682353 0.462745
-1 -6 5 0.643137 0.533333 0.313725
-1 -7 5 0.643137 0.533333 0.313725
-11 -6 5 0.643137 0.533333 0.313725
-11 -5 5 0.643137 0.533333 0.313725
-1 -5 5 0.643137 0.533333 0.313725
-11 -4 5 0.643137 0.533333 0.313725
-1 -4 5 0.643137 0.533333 0.313725
-11 -4 5 0.792157 0.682353 0.462745
-11 -3 5 0.792157 0.682353 0.462745
-1 -3 5 0.792157 0.682353 0.462745
-1 -4 5 0.792157 0.682353 0.462745
-11 -3 5 0.643137 0.533333 0.313725
-11 -2 5 0.643137 0.533333 0.313725
-1 -2 5 0.643137 0.533333 0.313725
-1 -3 5 0.643137 0.533333 0.313725
-11 -1 5 0.643137 0.533333 0.313725
-1 -1 5 0.643137 0.533333 0.313725
-11 0 5 0.643137 0.533333 0.313725
-10 0 5 0.643137 0.533333 0.313725
-9 0 5 0.643137 0.533333 0.313725
-8 0 5 0.643137 0.533333 0.313725
-8 0 5 0.792157 0.682353 0.462745
-7 0 5 0.792157 0.682353 0.462745
-7 0 5 0.643137 0.533333 0.313725
-6 0 5 0.643137 0.533333 0.313725
-5 0 5 0.643137 0.533333 0.313725
-4 0 5 0.643137 0.533333 0.313725
-4 0 5 0.792157 0.682353 0.462745
-3 0 5 0.792157 0.682353 0.462745
-3 0 5 0.643137 0.533333 0.313725
-2 0 5 0.643137 0.533333 0.313725
-1 0 5 0.643137 0.533333 0.313725
-10 -10 6 0.643137 0.533333 0.313725
-11 -10 6 0.643137 0.533333 0.313725
-11 -9 6 0.643137 0.533333 0.313725
-9 -10 6 0.643137 0.533333 0.313725
-8 -10 6 0.792157 0.682353 0.462745
-9 -10 6 0.792157 0.682353 0.462745
-7 -10 6 0.643137 0.533333 0.313725
-8 -10 6 0.643137 0.533333 0.313725
-6 -10 6 0.643137 0.533333 0.313725
-5 -10 6 0.643137 0.533333 0.313725
-4 -10 6 0.792157 0.682353 0.462745
-5 -10 6 0.792157 0.682353 0.462745
-3 -10 6 0.643137 0.533333 0.313725
-4 -10 6 0.643137 0.533333 0.313725
-2 -10 6 0.643137 0.533333 0.313725
-1 -10 6 0.643137 0.533333 0.313725
-1 -9 6 0.643137 0.533333 0.313725
-11 -9 5 0.792157 0.682353 0.462745
-11 -9 6 0.792157 0.682353 0.462745
-11 -8 6 0.792157 0.682353 0.462745
-11 -8 5 0.792157 0.682353 0.462745
-1 -8 6 0.643137 0.533333 0.313725
-11 -8 6 0.643137 0.533333 0.313725
-11 -7 6 0.643137 0.533333 0.313725
-1 -7 6 0.792157 0.682353 0.462745
-1 -8 6 0.792157 0.682353 0.462745
-11 -6 6 0.643137 0.533333 0.313725
-1 -6 6 0.643137 0.533333 0.313725
-1 -7 6 0.643137 0.533333 0.313725
-11 -5 6 0.643137 0.533333 0.313725
-1 -5 6 0.643137 0.533333 0.313725
-11 -4 6 0.643137 0.533333 0.313725
-1 -4 6 0.643137 0.533333 0.313725
-11 -4 6 0.792157 0.682353 0.462745
-11 -3 6 0.792157 0.682353 0.462745
-1 -3 6 0.792157 0.682353 0.462745
-1 -4 6 0.792157 0.682353 0.462745
-11 -3 6 0.643137 0.533333 0.313725
-11 -2 6 0.643137 0.533333 0.313725
-1 -2 6 0.643137 0.533333 0.313725
-1 -3 6 0.643137 0.533333 0.313725
-11 -1 6 0.643137 0.533333 0.313725
-1 -1 6 0.643137 0.533333 0.313725
-11 0 6 0.643137 0.533333 0.313725
-10 0 6 0.643137 0.533333 0.313725
-9 0 6 0.643137 0.533333 0.313725
-8 0 6 0.643137 0.533333 0.313725
-8 0 6 0.792157 0.682353 0.462745
-7 0 6 0.792157 0.682353 0.462745
-7 0 6 0.643137 0.533333 0.313725
-6 0 6 0.643137 0.533333 0.313725
-5 0 6 0.643137 0.533333 0.313725
-4 0 6 0.643137 0.533333 0.313725
-4 0 6 0.792157 0.682353 0.462745
-3 0 6 0.792157 0.682353 0.462745
-3 0 6 0.643137 0.533333 0.313725
-2 0 6 0.643137 0.533333 0.313725
-1 0 6 0.643137 0.533333 0.313725
-10 -10 7 0.643137 0.533333 0.313725
-11 -10 7 0.643137 0.533333 0.313725
-11 -9 7 0.643137 0.533333 0.313725
-9 -10 7 0.643137 0.533333 0.313725
-8 -10 7 0.792157 0.682353 0.462745
-9 -10 7 0.792157 0.682353 0.462745
-7 -10 7 0.643137 0.533333 0.313725
-8 -10 7 0.643137 0.533333 0.313725
-6 -10 7 0.643137 0.533333 0.313725
-5 -10 7 0.643137 0.533333 0.313725
-4 -10 7 0.643137 0.533333 0.313725
-3 -10 7 0.643137 0.533333 0.313725
-2 -10 7 0.643137 0.533333 0.313725
-1 -10 7 0.643137 0.533333 0.313725
-1 -9 7 0.643137 0.533333 0.313725
-11 -9 7 0.792157 0.682353 0.462745
-11 -8 7 0.792157 0.682353 0.462745
-1 -8 7 0.643137 0.533333 0.313725
-11 -8 7 0.643137 0.533333 0.313725
-11 -7 7 0.643137 0.533333 0.313725
-1 -7 7 0.792157 0.682353 0.462745
-1 -8 7 0.792157 0.682353 0.462745
-11 -6 7 0.643137 0.533333 0.313725
-1 -6 7 0.643137 0.533333 0.313725
-1 -7 7 0.643137 0.533333 0.313725
-11 -5 7 0.643137 0.533333 0.313725
-1 -5 7 0.643137 0.533333 0.313725
-11 -4 7 0.643137 0.533333 0.313725
-1 -4 7 0.643137 0.533333 0.313725
-11 -3 7 0.643137 0.533333 0.313725
-1 -3 7 0.643137 0.533333 0.313725
-11 -2 7 0.643137 0.533333 0.313725
-1 -2 7 0.643137 0.533333 0.313725
-11 -1 7 0.643137 0.533333 0.313725
-1 -1 7 0.643137 0.533333 0.313725
-11 0 7 0.643137 0.533333 0.313725
-10 0 7 0.643137 0.533333 0.313725
-9 0 7 0.643137 0.533333 0.313725
-8 0 7 0.643137 0.533333 0.313725
-7 0 7 0.643137 0.533333 0.313725
-6 0 7 0.643137 0.533333 0.313725
-5 0 7 0.643137 0.533333 0.313725
-4 0 7 0.643137 0.533333 0.313725
-4 0 7 0.792157 0.682353 0.462745
-3 0 7 0.792157 0.682353 0.462745
-3 0 7 0.643137 0.533333 0.313725
-2 0 7 0.643137 0.533333 0.313725
-1 0 7 0.643137 0.533333 0.313725
-10 -10 8 0.643137 0.533333 0.313725
-11 -10 8 0.643137 0.533333 0.313725
-11 -9 8 0.643137 0.533333 0.313725
-9 -10 8 0.643137 0.533333 0.313725
-8 -10 8 0.643137 0.533333 0.313725
-7 -10 8 0.643137 0.533333 0.313725
-6 -10 8 0.643137 0.533333 0.313725
-5 -10 8 0.643137 0.533333 0.313725
-4 -10 8 0.643137 0.533333 0.313725
-3 -10 8 0.643137 0.533333 0.313725
-2 -10 8 0.643137 0.533333 0.313725
-1 -10 8 0.643137 0.533333 0.313725
-1 -9 8 0.643137 0.533333 0.313725
-11 -8 8 0.643137 0.533333 0.313725
-1 -8 8 0.643137 0.533333 0.313725
-11 -7 8 0.643137 0.533333 0.313725
-1 -7 8 0.643137 0.533333 0.313725
-11 -6 8 0.643137 0.533333 0.313725
-1 -6 8 0.643137 0.533333 0.313725
-11 -5 8 0.643137 0.533333 0.313725
-1 -5 8 0.643137 0.533333 0.313725
-11 -4 8 0.643137 0.533333 0.313725
-1 -4 8 0.643137 0.533333 0.313725
-11 -3 8 0.643137 0.533333 0.313725
-1 -3 8 0.643137 0.533333 0.313725
-11 -3 7 0.439216 0.949020 0.066667
-11 -3 8 0.439216 0.949020 0.066667
-11 -2 8 0.439216 0.949020 0.066667
-11 -2 7 0.439216 0.949020 0.066667
-1 -2 8 0.643137 0.533333 0.313725
-11 -1 8 0.439216 0.949020 0.066667
-11 -1 7 0.439216 0.949020 0.066667
-1 -2 7 0.439216 0.949020 0.066667
-1 -1 7 0.439216 0.949020 0.066667
-1 -1 8 0.439216 0.949020 0.066667
-1 -2 8 0.439216 0.949020 0.066667
-11 0 8 0.643137 0.533333 0.313725
-10 0 8 0.643137 0.533333 0.313725
-11 -1 8 0.643137 0.533333 0.313725
-9 0 8 0.643137 0.533333 0.313725
-8 0 8 0.643137 0.533333 0.313725
-7 0 8 0.643137 0.533333 0.313725
-6 0 8 0.643137 0.533333 0.313725
-5 0 8 0.643137 0.533333 0.313725
-4 0 8 0.643137 0.533333 0.313725
-3 0 8 0.643137 0.533333 0.313725
-2 0 8 0.643137 0.533333 0.313725
-1 0 7 0.439216 0.949020 0.066667
-2 0 7 0.439216 0.949020 0.066667
-2 0 8 0.439216 0.949020 0.066667
-1 0 8 0.439216 0.949020 0.066667
-11 -10 8 0.439216 0.949020 0.066667
-10 -10 8 0.439216 0.949020 0.066667
-10 -10 9 0.439216 0.949020 0.066667
-11 -10 9 0.439216 0.949020 0.066667
-11 -9 9 0.439216 0.949020 0.066667
-11 -9 8 0.439216 0.949020 0.066667
-9 -10 8 0.439216 0.949020 0.066667
-9 -10 9 0.439216 0.949020 0.066667
-8 -10 9 0.643137 0.533333 0.313725
-9 -10 9 0.643137 0.533333 0.313725
-7 -10 9 0.643137 0.533333 0.313725
-7 -10 8 0.439216 0.949020 0.066667
-6 -10 8 0.439216 0.949020 0.066667
-6 -10 9 0.439216 0.949020 0.066667
-7 -10 9 0.439216 0.949020 0.066667
-5 -10 8 0.439216 0.949020 0.066667
-5 -10 9 0.439216 0.949020 0.066667
-4 -10 8 0.439216 0.949020 0.066667
-4 -10 9 0.439216 0.949020 0.066667
-3 -10 8 0.439216 0.949020 0.066667
-3 -10 9 0.439216 0.949020 0.066667
-2 -10 8 0.439216 0.949020 0.066667
-2 -10 9 0.439216 0.949020 0.066667
-1 -10 8 0.439216 0.949020 0.066667
-1 -10 9 0.439216 0.949020 0.066667
-1 -9 8 0.439216 0.949020 0.066667
-1 -9 9 0.439216 0.949020 0.066667
-11 -8 9 0.439216 0.949020 0.066667
-11 -8 8 0.439216 0.949020 0.066667
-1 -8 8 0.439216 0.949020 0.066667
-1 -8 9 0.439216 0.949020 0.066667
-11 -8 9 0.643137 0.533333 0.313725
-11 -7 9 0.643137 0.533333 0.313725
-1 -7 9 0.643137 0.533333 0.313725
-1 -8 9 0.643137 0.533333 0.313725
-11 -6 9 0.643137 0.533333 0.313725
-1 -6 9 0.643137 0.533333 0.313725
-11 -5 9 0.643137 0.533333 0.313725
-1 -5 9 0.643137 0.533333 0.313725
-11 -5 8 0.439216 0.949020 0.066667
-11 -5 9 0.439216 0.949020 0.066667
-11 -4 9 0.439216 0.949020 0.066667
-11 -4 8 0.439216 0.949020 0.066667
-1 -5 8 0.439216 0.949020 0.066667
-1 -4 8 0.439216 0.949020 0.066667
-1 -4 9 0.439216 0.949020 0.066667
-1 -5 9 0.439216 0.949020 0.066667
-11 -3 9 0.439216 0.949020 0.066667
-1 -3 8 0.439216 0.949020 0.066667
-1 -3 9 0.439216 0.949020 0.066667
-11 -2 9 0.439216 0.949020 0.066667
-1 -2 9 0.439216 0.949020 0.066667
-11 -1 9 0.439216 0.949020 0.066667
-1 -1 9 0.439216 0.949020 0.066667
-10 0 8 0.439216 0.949020 0.066667
-11 0 8 0.439216 0.949020 0.066667
-11 0 9 0.439216 0.949020 0.066667
-10 0 9 0.439216 0.949020 0.066667
-9 0 8 0.439216 0.949020 0.066667
-9 0 9 0.439216 0.949020 0.066667
-8 0 8 0.439216 0.949020 0.066667
-8 0 9 0.439216 0.949020 0.066667
-8 0 9 0.643137 0.533333 0.313725
-7 0 9 0.643137 0.533333 0.313725
-6 0 9 0.643137 0.533333 0.313725
-5 0 9 0.643137 0.533333 0.313725
-4 0 9 0.643137 0.533333 0.313725
-3 0 9 0.643137 0.533333 0.313725
-3 0 8 0.439216 0.949020 0.066667
-3 0 9 0.439216 0.949020 0.066667
-2 0 9 0.439216 0.949020 0.066667
-1 0 9 0.439216 0.949020 0.066667
-10 -10 10 0.439216 0.949020 0.066667
-11 -10 10 0.439216 0.949020 0.066667
-10 -9 10 0.439216 0.949020 0.066667
-11 -9 10 0.439216 0.949020 0.066667
-9 -10 10 0.439216 0.949020 0.066667
-9 -9 10 0.439216 0.949020 0.066667
-8 -10 9 0.439216 0.949020 0.066667
-8 -10 10 0.439216 0.949020 0.066667
-8 -9 10 0.439216 0.949020 0.066667
-7 -10 10 0.439216 0.949020 0.066667
-7 -9 10 0.439216 0.949020 0.066667
-6 -10 10 0.439216 0.949020 0.066667
-6 -9 10 0.439216 0.949020 0.066667
-5 -10 10 0.439216 0.949020 0.066667
-5 -9 10 0.439216 0.949020 0.066667
-4 -10 10 0.439216 0.949020 0.066667
-4 -9 10 0.439216 0.949020 0.066667
-3 -10 10 0.439216 0.949020 0.066667
-3 -9 10 0.439216 0.949020 0.066667
-2 -10 10 0.439216 0.949020 0.066667
-2 -9 10 0.439216 0.949020 0.066667
-1 -10 10 0.439216 0.949020 0.066667
-1 -9 10 0.439216 0.949020 0.066667
-10 -8 10 0.439216 0.949020 0.066667
-11 -8 10 0.439216 0.949020 0.066667
-9 -9 10 0.427451 0.878431 0.094118
-9 -8 10 0.427451 0.878431 0.094118
-10 -8 10 0.427451 0.878431 0.094118
-10 -9 10 0.427451 0.878431 0.094118
-8 -9 10 0.427451 0.878431 0.094118
-8 -8 10 0.427451 0.878431 0.094118
-7 -9 10 0.427451 0.878431 0.094118
-7 -8 10 0.427451 0.878431 0.094118
-6 -9 10 0.427451 0.878431 0.094118
-6 -8 10 0.427451 0.878431 0.094118
-5 -8 10 0.439216 0.949020 0.066667
-6 -8 10 0.439216 0.949020 0.066667
-4 -8 10 0.439216 0.949020 0.066667
-3 -9 10 0.427451 0.878431 0.094118
-3 -8 10 0.427451 0.878431 0.094118
-4 -8 10 0.427451 0.878431 0.094118
-4 -9 10 0.427451 0.878431 0.094118
-2 -9 10 0.427451 0.878431 0.094118
-2 -8 10 0.427451 0.878431 0.094118
-1 -8 10 0.439216 0.949020 0.066667
-2 -8 10 0.439216 0.949020 0.066667
-10 -7 10 0.439216 0.949020 0.066667
-11 -7 10 0.439216 0.949020 0.066667
-11 -7 9 0.439216 0.949020 0.066667
-9 -8 10 0.439216 0.949020 0.066667
-9 -7 10 0.439216 0.949020 0.066667
-8 -8 10 0.439216 0.949020 0.066667
-8 -7 10 0.439216 0.949020 0.066667
-7 -8 10 0.439216 0.949020 0.066667
-7 -7 10 0.439216 0.949020 0.066667
-6 -7 10 0.439216 0.949020 0.066667
-5 -7 10 0.439216 0.949020 0.066667
-4 -7 10 0.439216 0.949020 0.066667
-3 -8 10 0.439216 0.949020 0.066667
-3 -7 10 0.439216 0.949020 0.066667
-2 -7 10 0.439216 0.949020 0.066667
-1 -7 10 0.439216 0.949020 0.066667
-1 -7 9 0.439216 0.949020 0.066667
-10 -6 10 0.439216 0.949020 0.066667
-11 -6 10 0.439216 0.949020 0.066667
-11 -6 9 0.439216 0.949020 0.066667
-9 -6 10 0.439216 0.949020 0.066667
-8 -6 10 0.439216 0.949020 0.066667
-7 -6 10 0.439216 0.949020 0.066667
-6 -7 10 0.427451 0.878431 0.094118
-6 -6 10 0.427451 0.878431 0.094118
-7 -6 10 0.427451 0.878431 0.094118
-7 -7 10 0.427451 0.878431 0.094118
-5 -7 10 0.427451 0.878431 0.094118
-5 -6 10 0.427451 0.878431 0.094118
-4 -7 10 0.427451 0.878431 0.094118
-4 -6 10 0.427451 0.878431 0.094118
-3 -6 10 0.439216 0.949020 0.066667
-4 -6 10 0.439216 0.949020 0.066667
-2 -6 10 0.439216 0.949020 0.066667
-1 -6 10 0.439216 0.949020 0.066667
-1 -6 9 0.439216 0.949020 0.066667
-10 -5 10 0.439216 0.949020 0.066667
-11 -5 10 0.439216 0.949020 0.066667
-9 -5 10 0.439216 0.949020 0.066667
-8 -5 10 0.439216 0.949020 0.066667
-7 -5 10 0.439216 0.949020 0.066667
-6 -6 10 0.439216 0.949020 0.066667
-6 -5 10 0.439216 0.949020 0.066667
-5 -6 10 0.439216 0.949020 0.066667
-5 -5 10 0.439216 0.949020 0.066667
-4 -5 10 0.439216 0.949020 0.066667
-3 -5 10 0.439216 0.949020 0.066667
-2 -5 10 0.439216 0.949020 0.066667
-1 -5 10 0.439216 0.949020 0.066667
-10 -4 10 0.439216 0.949020 0.066667
-11 -4 10 0.439216 0.949020 0.066667
-9 -4 10 0.439216 0.949020 0.066667
-8 -4 10 0.439216 0.949020 0.066667
-7 -4 10 0.439216 0.949020 0.066667
-6 -4 10 0.439216 0.949020 0.066667
-5 -4 10 0.439216 0.949020 0.066667
-4 -4 10 0.439216 0.949020 0.066667
-3 -4 10 0.439216 0.949020 0.066667
-2 -4 10 0.439216 0.949020 0.066667
-1 -4 10 0.439216 0.949020 0.066667
-10 -3 10 0.439216 0.949020 0.066667
-11 -3 10 0.439216 0.949020 0.066667
-9 -3 10 0.439216 0.949020 0.066667
-8 -4 10 0.427451 0.878431 0.094118
-8 -3 10 0.427451 0.878431 0.094118
-9 -3 10 0.427451 0.878431 0.094118
-9 -4 10 0.427451 0.878431 0.094118
-7 -4 10 0.427451 0.878431 0.094118
-7 -3 10 0.427451 0.878431 0.094118
-6 -4 10 0.427451 0.878431 0.094118
-6 -3 10 0.427451 0.878431 0.094118
-5 -4 10 0.427451 0.878431 0.094118
-5 -3 10 0.427451 0.878431 0.094118
-4 -3 10 0.439216 0.949020 0.066667
-5 -3 10 0.439216 0.949020 0.066667
-3 -3 10 0.439216 0.949020 0.066667
-2 -3 10 0.439216 0.949020 0.066667
-1 -3 10 0.439216 0.949020 0.066667
-10 -2 10 0.439216 0.949020 0.066667
-11 -2 10 0.439216 0.949020 0.066667
-9 -2 10 0.439216 0.949020 0.066667
-8 -3 10 0.439216 0.949020 0.066667
-8 -2 10 0.439216 0.949020 0.066667
-7 -3 10 0.439216 0.949020 0.066667
-7 -2 10 0.439216 0.949020 0.066667
-6 -3 10 0.439216 0.949020 0.066667
-6 -2 10 0.439216 0.949020 0.066667
-5 -2 10 0.439216 0.949020 0.066667
-4 -2 10 0.439216 0.949020 0.066667
-3 -2 10 0.439216 0.949020 0.066667
-2 -2 10 0.439216 0.949020 0.066667
-1 -2 10 0.439216 0.949020 0.066667
-10 -1 10 0.439216 0.949020 0.066667
-11 -1 10 0.439216 0.949020 0.066667
-9 -1 10 0.439216 0.949020 0.066667
-8 -1 10 0.439216 0.949020 0.066667
-7 -1 10 0.439216 0.949020 0.066667
-6 -1 10 0.439216 0.949020 0.066667
-5 -2 10 0.427451 0.878431 0.094118
-5 -1 10 0.427451 0.878431 0.094118
-6 -1 10 0.427451 0.878431 0.094118
-6 -2 10 0.427451 0.878431 0.094118
-4 -2 10 0.427451 0.878431 0.094118
-4 -1 10 0.427451 0.878431 0.094118
-3 -2 10 0.427451 0.878431 0.094118
-3 -1 10 0.427451 0.878431 0.094118
-2 -2 10 0.427451 0.878431 0.094118
-2 -1 10 0.427451 0.878431 0.094118
-1 -1 10 0.439216 0.949020 0.066667
-2 -1 10 0.439216 0.949020 0.066667
-11 0 10 0.439216 0.949020 0.066667
-10 0 10 0.439216 0.949020 0.066667
-9 0 10 0.439216 0.949020 0.066667
-8 0 10 0.439216 0.949020 0.066667
-7 0 9 0.439216 0.949020 0.066667
-7 0 10 0.439216 0.949020 0.066667
-6 0 9 0.439216 0.949020 0.066667
-6 0 10 0.439216 0.949020 0.066667
-5 0 9 0.439216 0.949020 0.066667
-5 0 10 0.439216 0.949020 0.066667
-5 -1 10 0.439216 0.949020 0.066667
-4 0 9 0.439216 0.949020 0.066667
-4 0 10 0.439216 0.949020 0.066667
-4 -1 10 0.439216 0.949020 0.066667
-3 0 10 0.439216 0.949020 0.066667
-3 -1 10 0.439216 0.949020 0.066667
-2 0 10 0.439216 0.949020 0.066667
-1 0 10 0.439216 0.949020 0.066667
4 0 1 2 3
4 0 4 5 1
4 0 3 6 4
4 1 7 8 2
4 1 5 9 7
4 7 10 11 8
4 7 9 12 10
4 10 13 14 11
4 10 12 15 13
4 13 16 17 14
4 13 15 18 16
4 16 19 20 17
4 16 18 21 19
4 19 22 23 20
4 19 21 24 22
4 22 25 26 23
4 22 24 27 25
4 25 28 29 26
4 25 27 30 28
4 28 31 32 29
4 28 30 33 31
4 31 33 34 32
4 4 35 36 5
4 4 6 37 35
4 5 36 38 9
4 9 38 39 12
4 12 39 40 15
4 15 40 41 18
4 18 41 42 21
4 21 42 43 24
4 24 43 44 27
4 27 44 45 30
4 30 45 46 33
4 33 46 47 34
4 35 48 49 36
4 35 37 50 48
4 36 49 51 38
4 38 51 52 39
4 39 52 53 40
4 40 53 54 41
4 41 54 55 42
4 42 55 56 43
4 43 56 57 44
4 44 57 58 45
4 45 58 59 46
4 46 59 60 47
4 48 61 62 49
4 48 50 63 61
4 49 62 64 51
4 51 64 65 52
4 52 65 66 53
4 53 66 67 54
4 54 67 68 55
4 55 68 69 56
4 56 69 70 57
4 57 70 71 58
4 58 71 72 59
4 59 72 73 60
4 61 74 75 62
4 61 63 76 74
4 62 75 77 64
4 64 77 78 65
4 65 78 79 66
4 66 79 80 67
4 67 80 81 68
4 68 81 82 69
4 69 82 83 70
4 70 83 84 71
4 71 84 85 72
4 72 85 86 73
4 74 87 88 75
4 74 76 89 87
4 75 88 90 77
4 77 90 91 78
4 78 91 92 79
4 79 92 93 80
4 80 93 94 81
4 81 94 95 82
4 82 95 96 83
4 83 96 97 84
4 84 97 98 85
4 85 98 99 86
4 87 100 101 88
4 87 89 102 100
4 88 101 103 90
4 90 103 104 91
4 91 104 105 92
4 92 105 106 93
4 93 106 107 94
4 94 107 108 95
4 95 108 109 96
4 96 109 110 97
4 97 110 111 98
4 98 111 112 99
4 100 113 114 101
4 100 102 115 113
4 101 114 116 103
4 103 116 117 104
4 104 117 118 105
4 105 118 119 106
4 106 119 120 107
4 107 120 121 108
4 108 121 122 109
4 109 122 123 110
4 110 123 124 111
4 111 124 125 112
4 113 126 127 114
4 113 115 128 126
4 114 127 129 116
4 116 129 130 117
4 117 130 131 118
4 118 131 132 119
4 119 132 133 120
4 120 133 134 121
4 121 134 135 122
4 122 135 136 123
4 123 136 137 124
4 124 137 138 125
4 139 140 141 142
4 126 140 139 127
4 126 128 141 140
4 143 139 142 144
4 127 139 143 129
4 145 143 144 146
4 129 143 145 130
4 147 145 146 148
4 130 145 147 131
4 149 147 148 150
4 131 147 149 132
4 151 149 150 152
4 132 149 151 133
4 153 151 152 154
4 133 151 153 134
4 155 153 154 156
4 134 153 155 135
4 157 155 156 158
4 135 155 157 136
4 159 157 158 160
4 136 157 159 137
4 137 159 160 138
4 3 2 161 162
4 3 162 163 6
4 2 8 164 161
4 8 11 165 164
4 11 14 166 165
4 14 17 167 166
4 17 20 168 167
4 20 23 169 168
4 23 26 170 169
4 26 29 171 170
4 29 32 172 171
4 32 34 173 172
4 174 175 176 177
4 34 47 178 173
4 37 179 180 50
4 47 60 181 178
4 50 180 182 63
4 60 73 183 181
4 63 182 184 76
4 185 186 187 188
4 76 184 189 89
4 86 99 190 191
4 89 189 192 102
4 99 112 193 190
4 102 192 194 115
4 112 125 195 193
4 196 197 198 199
4 125 138 200 195
4 142 141 201 202
4 128 203 201 141
4 204 205 206 207
4 146 144 208 209
4 148 146 209 210
4 150 148 210 211
4 152 150 211 212
4 154 152 212 213
4 156 154 213 214
4 158 156 214 215
4 160 158 215 216
4 138 160 216 200
4 162 161 217 218
4 162 218 219 163
4 161 164 220 217
4 164 165 221 220
4 165 166 222 221
4 223 224 225 226
4 167 168 227 228
4 168 169 229 227
4 169 170 230 229
4 170 171 231 230
4 171 172 232 231
4 172 173 233 232
4 163 219 234 179
4 173 178 235 233
4 179 234 236 180
4 178 181 237 235
4 180 236 238 182
4 181 183 239 237
4 182 238 240 184
4 188 187 241 242
4 184 240 243 189
4 191 190 244 245
4 246 247 248 249
4 190 193 250 244
4 192 251 252 194
4 193 195 253 250
4 197 254 255 198
4 256 257 258 259
4 202 201 260 261
4 203 262 260 201
4 207 206 263 264
4 209 208 265 266
4 210 209 266 267
4 211 210 267 268
4 269 270 271 272
4 213 212 273 274
4 214 213 274 275
4 215 214 275 276
4 216 215 276 277
4 200 216 277 278
4 218 217 279 280
4 218 280 281 219
4 217 220 282 279
4 220 221 283 282
4 221 222 284 283
4 226 225 285 286
4 228 227 287 288
4 289 290 291 292
4 229 230 293 294
4 230 231 295 293
4 231 232 296 295
4 232 233 297 296
4 219 281 298 234
4 233 235 299 297
4 234 298 300 236
4 235 237 301 299
4 302 303 304 305
4 237 239 306 301
4 238 307 308 240
4 242 241 309 310
4 240 308 311 243
4 245 244 312 313
4 247 314 315 248
4 316 317 318 319
4 251 320 321 252
4 250 253 322 323
4 254 324 325 255
4 259 258 326 327
4 261 260 328 329
4 262 330 328 260
4 264 263 331 332
4 266 265 333 334
4 335 336 337 338
4 268 267 339 340
4 272 271 341 342
4 274 273 343 344
4 345 346 347 348
4 276 275 349 350
4 277 276 350 351
4 278 277 351 352
4 280 279 353 354
4 280 354 355 281
4 279 282 356 353
4 357 358 359 360
4 283 284 361 362
4 284 288 363 361
4 288 287 364 363
4 292 291 365 366
4 294 293 367 368
4 293 295 369 367
4 295 296 370 369
4 296 297 371 370
4 281 355 372 298
4 297 299 373 371
4 298 372 374 300
4 375 376 377 378
4 303 379 380 304
4 301 306 381 382
4 307 383 384 308
4 306 313 385 381
4 308 384 386 311
4 313 312 387 385
4 314 388 389 315
4 319 318 390 391
4 320 392 393 321
4 323 322 394 395
4 321 393 396 330
4 322 352 397 394
4 329 328 398 399
4 330 396 398 328
4 333 329 399 400
4 334 333 400 401
4 338 337 402 403
4 340 339 404 405
4 343 340 405 406
4 344 343 406 407
4 348 347 408 409
4 350 349 410 411
4 351 350 411 412
4 352 351 412 397
4 354 353 413 414
4 354 414 415 355
4 353 356 416 413
4 360 359 417 418
4 362 361 419 420
4 361 363 421 419
4 363 364 422 421
4 366 365 423 424
4 368 367 425 426
4 367 369 427 425
4 369 370 428 427
4 370 371 429 428
4 430 431 432 433
4 371 373 434 429
4 372 435 436 374
4 378 377 437 438
4 374 436 439 383
4 382 381 440 441
4 383 439 442 384
4 381 385 443 440
4 384 442 444 386
4 385 387 445 443
4 388 446 447 389
4 391 390 448 449
4 392 450 451 393
4 395 394 452 453
4 393 451 454 396
4 394 397 455 452
4 399 398 456 457
4 396 454 456 398
4 400 399 457 458
4 401 400 458 459
4 403 402 460 461
4 405 404 462 463
4 406 405 463 464
4 407 406 464 465
4 409 408 466 467
4 411 410 468 469
4 412 411 469 470
4 397 412 470 455
4 414 413 471 472
4 414 472 473 415
4 413 416 474 471
4 418 417 475 476
4 420 419 477 478
4 419 421 479 477
4 421 422 480 479
4 422 426 481 480
4 426 425 482 481
4 425 427 483 482
4 427 428 484 483
4 428 429 485 484
4 431 486 487 432
4 429 434 488 485
4 435 489 490 436
4 438 437 491 492
4 436 490 493 439
4 441 440 494 495
4 439 493 496 442
4 440 443 497 494
4 442 496 498 444
4 443 445 499 497
4 444 498 500 450
4 445 453 501 499
4 450 500 502 451
4 453 452 503 501
4 451 502 504 454
4 452 455 505 503
4 457 456 506 507
4 454 504 506 456
4 458 457 507 508
4 459 458 508 509
4 462 459 509 510
4 463 462 510 511
4 464 463 511 512
4 465 464 512 513
4 467 466 514 515
4 469 468 516 517
4 470 469 517 518
4 455 470 518 505
4 472 471 519 520
4 472 520 521 473
4 471 474 522 519
4 474 478 523 522
4 478 477 524 523
4 477 479 525 524
4 479 480 526 525
4 480 481 527 526
4 481 482 528 527
4 482 483 529 528
4 483 484 530 529
4 484 485 531 530
4 473 521 532 489
4 485 488 533 531
4 489 532 534 490
4 488 495 535 533
4 490 534 536 493
4 495 494 537 535
4 493 536 538 496
4 494 497 539 537
4 496 538 540 498
4 497 499 541 539
4 498 540 542 500
4 499 501 543 541
4 544 545 546 547
4 501 503 548 543
4 547 546 549 550
4 551 552 553 554
4 507 506 555 556
4 504 557 555 506
4 508 507 556 558
4 509 508 558 559
4 510 509 559 560
4 511 510 560 561
4 512 511 561 562
4 513 512 562 563
4 516 513 563 564
4 517 516 564 565
4 566 567 568 569
4 552 566 569 553
4 570 571 572 573
4 570 573 574 575
4 571 576 577 572
4 522 523 578 579
4 523 524 580 578
4 581 582 583 584
4 582 585 586 583
4 585 587 588 586
4 587 589 590 588
4 589 591 592 590
4 591 593 594 592
4 593 595 596 594
4 575 574 597 598
4 595 599 600 596
4 532 601 602 534
4 533 535 603 604
4 534 602 605 536
4 535 537 606 603
4 536 605 607 538
4 537 539 608 606
4 609 610 611 612
4 613 614 615 616
4 612 611 617 545
4 614 618 619 615
4 545 617 620 546
4 618 554 621 619
4 546 620 622 549
4 554 553 623 621
4 624 625 626 627
4 549 622 626 625
4 628 624 627 629
4 630 628 629 631
4 560 559 632 633
4 561 560 633 634
4 562 561 634 635
4 563 562 635 636
4 564 563 636 637
4 568 638 639 640
4 569 568 640 641
4 553 569 641 623
4 573 572 642 643
4 642 644 645 643
4 573 643 645 574
4 572 577 646 642
4 646 647 644 642
4 577 648 649 646
4 649 650 647 646
4 648 584 651 649
4 651 652 650 649
4 584 583 653 651
4 653 654 652 651
4 583 586 655 653
4 655 656 654 653
4 586 588 657 655
4 657 658 656 655
4 588 590 659 657
4 659 660 658 657
4 590 592 661 659
4 661 662 660 659
4 592 594 663 661
4 663 664 662 661
4 594 596 664 663
4 644 665 666 645
4 574 645 666 597
4 667 668 669 670
4 671 672 668 667
4 673 674 672 671
4 675 676 674 673
4 656 677 678 654
4 658 679 677 656
4 680 681 682 683
4 684 685 681 680
4 664 686 687 662
4 596 600 686 664
4 665 688 689 666
4 597 666 689 690
4 691 692 688 665
4 693 694 692 691
4 695 696 694 693
4 678 697 696 695
4 677 698 697 678
4 679 699 698 677
4 700 701 699 679
4 687 702 701 700
4 686 703 702 687
4 600 704 703 686
4 688 705 706 689
4 690 689 706 707
4 692 708 705 688
4 694 709 708 692
4 696 710 709 694
4 711 712 713 714
4 715 716 712 711
4 717 718 716 715
4 701 719 720 699
4 702 721 719 701
4 703 722 721 702
4 704 723 722 703
4 705 724 725 706
4 707 706 725 610
4 708 726 724 705
4 709 727 726 708
4 710 728 727 709
4 729 730 728 710
4 731 732 730 729
4 720 733 732 731
4 719 734 733 720
4 721 735 734 719
4 722 736 735 721
4 723 616 736 722
4 724 737 738 725
4 610 725 738 611
4 726 739 737 724
4 727 740 739 726
4 728 741 740 727
4 730 742 741 728
4 732 743 742 730
4 733 744 743 732
4 734 745 744 733
4 735 746 745 734
4 736 747 746 735
4 616 615 747 736
4 737 748 749 738
4 611 738 749 617
4 739 750 748 737
4 751 752 753 754
4 755 756 752 751
4 757 758 756 755
4 759 760 758 757
4 744 761 762 743
4 745 763 761 744
4 746 764 763 745
4 747 765 764 746
4 615 619 765 747
4 748 766 767 749
4 617 749 767 620
4 750 768 766 748
4 769 770 768 750
4 771 772 770 769
4 773 774 772 771
4 762 775 774 773
4 761 776 775 762
4 763 777 776 761
4 764 778 777 763
4 765 779 778 764
4 619 621 779 765
4 766 780 781 767
4 620 767 781 622
4 768 782 780 766
4 770 783 782 768
4 772 784 783 770
4 774 785 784 772
4 786 787 788 789
4 790 791 787 786
4 792 793 791 790
4 794 795 793 792
4 779 796 797 778
4 621 623 796 779
4 627 626 798 799
4 780 799 798 781
4 622 781 798 626
4 629 627 799 800
4 782 800 799 780
4 631 629 800 801
4 783 801 800 782
4 802 631 801 803
4 784 803 801 783
4 804 802 803 805
4 785 805 803 784
4 806 804 805 807
4 808 807 805 785
4 809 806 807 810
4 811 810 807 808
4 639 809 810 812
4 813 812 810 811
4 640 639 812 814
4 797 814 812 813
4 641 640 814 815
4 796 815 814 797
4 623 641 815 796
