{
  "accessors": [
    {
      "bufferView": 1,
      "componentType": 5123,
      "type": "SCALAR",
      "count": 5022
    },
    {
      "bufferView": 2,
      "componentType": 5126,
      "type": "VEC3",
      "count": 3348,
      "min": [0, 2, 2],
      "max": [15, 16, 16]
    },
    {
      "bufferView": 2,
      "componentType": 5126,
      "type": "VEC3",
      "byteOffset": 12,
      "count": 3348
    },
    {
      "bufferView": 2,
      "componentType": 5126,
      "type": "VEC2",
      "byteOffset": 24,
      "count": 3348
    },
    {
      "bufferView": 3,
      "componentType": 5123,
      "type": "SCALAR",
      "count": 2592
    },
    {
      "bufferView": 4,
      "componentType": 5126,
      "type": "VEC3",
      "count": 1728,
      "min": [0, 0, 2],
      "max": [15, 6, 16]
    },
    {
      "bufferView": 4,
      "componentType": 5126,
      "type": "VEC3",
      "byteOffset": 12,
      "count": 1728
    },
    {
      "bufferView": 4,
      "componentType": 5126,
      "type": "VEC2",
      "byteOffset": 24,
      "count": 1728
    },
    {
      "bufferView": 5,
      "componentType": 5123,
      "type": "SCALAR",
      "count": 4482
    },
    {
      "bufferView": 6,
      "componentType": 5126,
      "type": "VEC3",
      "count": 2988,
      "min": [0, 0, 0],
      "max": [15, 16, 15]
    },
    {
      "bufferView": 6,
      "componentType": 5126,
      "type": "VEC3",
      "byteOffset": 12,
      "count": 2988
    },
    {
      "bufferView": 6,
      "componentType": 5126,
      "type": "VEC2",
      "byteOffset": 24,
      "count": 2988
    },
    {
      "bufferView": 7,
      "componentType": 5123,
      "type": "SCALAR",
      "count": 2160
    },
    {
      "bufferView": 8,
      "componentType": 5126,
      "type": "VEC3",
      "count": 1440,
      "min": [0, 0, 0],
      "max": [15, 7, 9]
    },
    {
      "bufferView": 8,
      "componentType": 5126,
      "type": "VEC3",
      "byteOffset": 12,
      "count": 1440
    },
    {
      "bufferView": 8,
      "componentType": 5126,
      "type": "VEC2",
      "byteOffset": 24,
      "count": 1440
    },
    {
      "bufferView": 9,
      "componentType": 5123,
      "type": "SCALAR",
      "count": 504
    },
    {
      "bufferView": 10,
      "componentType": 5126,
      "type": "VEC3",
      "count": 336,
      "min": [2, 4, 0],
      "max": [13, 7, 2]
    },
    {
      "bufferView": 10,
      "componentType": 5126,
      "type": "VEC3",
      "byteOffset": 12,
      "count": 336
    },
    {
      "bufferView": 10,
      "componentType": 5126,
      "type": "VEC2",
      "byteOffset": 24,
      "count": 336
    },
    {
      "bufferView": 11,
      "componentType": 5123,
      "type": "SCALAR",
      "count": 504
    },
    {
      "bufferView": 12,
      "componentType": 5126,
      "type": "VEC3",
      "count": 336,
      "min": [2, 1, 0],
      "max": [13, 4, 2]
    },
    {
      "bufferView": 12,
      "componentType": 5126,
      "type": "VEC3",
      "byteOffset": 12,
      "count": 336
    },
    {
      "bufferView": 12,
      "componentType": 5126,
      "type": "VEC2",
      "byteOffset": 24,
      "count": 336
    }
  ],
  "asset": {
    "generator": "goxel",
    "version": "2.0"
  },
  "bufferViews": [
    {
      "buffer": 0,
      "byteLength": 156
    },
    {
      "buffer": 2,
      "byteLength": 10044
    },
    {
      "buffer": 1,
      "byteLength": 107136,
      "byteStride": 32
    },
    {
      "buffer": 4,
      "byteLength": 5184
    },
    {
      "buffer": 3,
      "byteLength": 55296,
      "byteStride": 32
    },
    {
      "buffer": 6,
      "byteLength": 8964
    },
    {
      "buffer": 5,
      "byteLength": 95616,
      "byteStride": 32
    },
    {
      "buffer": 8,
      "byteLength": 4320
    },
    {
      "buffer": 7,
      "byteLength": 46080,
      "byteStride": 32
    },
    {
      "buffer": 10,
      "byteLength": 1008
    },
    {
      "buffer": 9,
      "byteLength": 10752,
      "byteStride": 32
    },
    {
      "buffer": 12,
      "byteLength": 1008
    },
    {
      "buffer": 11,
      "byteLength": 10752,
      "byteStride": 32
    }
  ],
  "buffers": [
    {
      "uri": "data:application/octet-stream;base64,",
      "byteLength": 156
    },
    {
      "uri": "data:application/octet-stream;base64,",
      "byteLength": 107136
    },
    {
      "uri": "data:application/octet-stream;base64,",
      "byteLength": 10044
    },
    {
      "uri": "data:application/octet-stream;base64,",
      "byteLength": 55296
    },
    {
      "uri": "data:application/octet-stream;base64,",
      "byteLength": 5184
    },
    {
      "uri": "data:application/octet-stream;base64,",
      "byteLength": 95616
    },
    {
      "uri": "data:application/octet-stream;base64,",
      "byteLength": 8964
    },
    {
      "uri": "data:application/octet-stream;base64,",
      "byteLength": 46080
    },
    {
      "uri": "data:application/octet-stream;base64,",
      "byteLength": 4320
    },
    {
      "uri": "data:application/octet-stream;base64,",
      "byteLength": 10752
    },
    {
      "uri": "data:application/octet-stream;base64,",
      "byteLength": 1008
    },
    {
      "uri": "data:application/octet-stream;base64,",
      "byteLength": 10752
    },
    {
      "uri": "data:application/octet-stream;base64,",
      "byteLength": 1008
    }
  ],
  "images": [
    {
      "bufferView": 0,
      "mimeType": "image/png"
    }
  ],
  "meshes": [
    {
      "primitives": [
        {
          "indices": 0,
          "material": 0,
          "attributes": {
            "POSITION": 1,
            "NORMAL": 2,
            "TEXCOORD_0": 3
          }
        }
      ]
    },
    {
      "primitives": [
        {
          "indices": 4,
          "material": 0,
          "attributes": {
            "POSITION": 5,
            "NORMAL": 6,
            "TEXCOORD_0": 7
          }
        }
      ]
    },
    {
      "primitives": [
        {
          "indices": 8,
          "material": 0,
          "attributes": {
            "POSITION": 9,
            "NORMAL": 10,
            "TEXCOORD_0": 11
          }
        }
      ]
    },
    {
      "primitives": [
        {
          "indices": 12,
          "material": 0,
          "attributes": {
            "POSITION": 13,
            "NORMAL": 14,
            "TEXCOORD_0": 15
          }
        }
      ]
    },
    {
      "primitives": [
        {
          "indices": 16,
          "material": 0,
          "attributes": {
            "POSITION": 17,
            "NORMAL": 18,
            "TEXCOORD_0": 19
          }
        }
      ]
    },
    {
      "primitives": [
        {
          "indices": 20,
          "material": 0,
          "attributes": {
            "POSITION": 21,
            "NORMAL": 22,
            "TEXCOORD_0": 23
          }
        }
      ]
    }
  ],
  "materials": [
    {
      "name": "Material.1",
      "pbrMetallicRoughness": {
        "baseColorTexture": {
          "index": 0
        },
        "metallicFactor": 0.200000003,
        "roughnessFactor": 0.5
      }
    }
  ],
  "nodes": [
    {
      "children": [ 5, 8 ],
      "matrix": [1, 0, 0, 0, 0, 0, -1, 0, 0, 1, 0, 0, 0, 0, 0, 1]
    },
    {
      "mesh": 0,
      "translation": [-16, -16, 0]
    },
    {
      "mesh": 1,
      "translation": [-16, 0, 0]
    },
    {
      "mesh": 2,
      "translation": [-16, -16, 16]
    },
    {
      "mesh": 3,
      "translation": [-16, 0, 16]
    },
    {
      "children": [ 1, 2, 3, 4 ]
    },
    {
      "mesh": 4,
      "translation": [-16, -16, 0]
    },
    {
      "mesh": 5,
      "translation": [-16, 0, 0]
    },
    {
      "children": [ 6, 7 ]
    }
  ],
  "scenes": [
    {
      "nodes": [ 0 ]
    }
  ],
  "textures": [
    {
      "source": 0
    }
  ]
}
